<svg width="35" height="26" viewBox="0 0 35 26" fill="none" xmlns="http://www.w3.org/2000/svg">
<path d="M35 17.0434H22.838C22.5773 17.0434 22.3615 17.2391 22.3293 17.4918C22.3279 17.5162 22.3265 17.5405 22.3251 17.5653C22.3217 17.6154 22.318 17.6658 22.3138 17.716C22.1442 19.8137 21.2021 21.7642 19.6182 23.2677C18.4026 24.4216 16.9099 25.2168 15.2825 25.5965C14.8669 25.6751 14.4444 25.7335 14.0158 25.7702C13.6705 25.8004 13.321 25.8166 12.9685 25.8183C12.9455 25.8183 12.9222 25.8183 12.8993 25.8183C12.5046 25.8183 12.1137 25.8004 11.7279 25.7651C12.1359 25.82 12.5501 25.8492 12.9692 25.8523C12.9459 25.8523 12.9226 25.8523 12.8993 25.8523C11.1578 25.8523 9.46871 25.5107 7.87831 24.8367C6.34239 24.1854 4.9627 23.2536 3.77796 22.0663C2.59356 20.8791 1.66337 19.4968 1.01378 17.9577C0.340897 16.3646 0 14.6716 0 12.9265C0 11.1813 0.340897 9.48869 1.01378 7.89494C1.66337 6.35578 2.59356 4.97352 3.77796 3.78627C4.9627 2.59903 6.34239 1.66722 7.87831 1.01592C9.46871 0.34196 11.1578 0 12.8993 0C14.6407 0 16.3298 0.34196 17.9202 1.01592C19.1944 1.55633 20.3613 2.28969 21.3984 3.20227C21.4073 3.20982 21.4162 3.21772 21.4251 3.22561C21.6286 3.40552 21.8273 3.59263 22.0206 3.78627C22.5163 4.28308 22.9672 4.81387 23.3715 5.37625C23.3783 5.38552 23.3852 5.39513 23.3917 5.4044L23.3571 5.42603L20.2119 7.40706L20.1784 7.42801C20.1715 7.41874 20.1646 7.40981 20.1575 7.40054C19.5599 6.61396 18.8381 5.92695 18.0213 5.36972C18.011 5.36251 18.0007 5.35565 17.9904 5.34878C16.5354 4.36376 14.7833 3.78833 12.8993 3.78833C7.87112 3.78833 3.78002 7.88773 3.78002 12.9265C3.78002 13.6193 3.85745 14.2943 4.00408 14.9432C3.99723 14.9697 3.99072 14.9957 3.98455 15.0222C3.99038 15.0486 3.99654 15.0751 4.00305 15.1012C4.00922 15.0747 4.01539 15.0486 4.02224 15.0222C4.82223 18.4274 7.52885 21.104 10.9464 21.8542C11.1389 21.8964 11.3335 21.9324 11.5302 21.9623C11.9245 22.0221 12.3271 22.0564 12.7365 22.0633C15.5514 22.0032 17.9175 19.8955 18.6479 17.0434C18.651 17.0321 18.6537 17.0204 18.6568 17.0091C18.8007 16.4353 18.8785 15.8321 18.8809 15.2096C18.8809 15.0998 18.8905 14.9923 18.9093 14.8879C19.0409 14.1446 19.6213 13.5551 20.3586 13.4106C20.4727 13.3879 20.5905 13.3762 20.7108 13.3762H29.1475L29.2024 13.4106L34.9452 17.0091L35 17.0434Z" fill="#7921D1"/>
<path d="M16.5918 9.33692C16.5918 9.42687 16.5699 9.51167 16.5309 9.58618C16.5124 9.61604 16.4935 9.64557 16.4736 9.67441C16.4733 9.6751 16.473 9.67579 16.4723 9.67647C15.994 10.3824 15.1865 10.8459 14.2707 10.8459C13.9722 10.8459 13.6855 10.7968 13.4179 10.7058H13.4176C13.3926 10.6965 13.3675 10.6876 13.3425 10.679C13.0513 10.5801 12.7392 10.5279 12.4144 10.5303C10.9021 10.5424 9.65502 11.7687 9.61631 13.2835C9.60774 13.6166 9.65673 13.9369 9.75369 14.2352C9.80851 14.4035 9.58718 14.5226 9.47652 14.3846C8.86976 13.6272 8.50659 12.6652 8.50659 11.6184C8.50659 9.58583 9.87532 7.87363 11.7395 7.35692C12.1146 7.25289 12.51 7.19727 12.9184 7.19727C14.37 7.19727 15.6579 7.90007 16.462 8.98431C16.4781 9.00629 16.4942 9.02826 16.5103 9.05058C16.562 9.13332 16.5918 9.23151 16.5918 9.33657V9.33692Z" fill="#7921D1"/>
<path d="M23.9504 6.66992C23.9504 6.66992 23.95 6.66992 23.95 6.67074C23.9504 6.67033 23.9504 6.66992 23.9508 6.66992H23.9504Z" fill="#7921D1"/>
<path d="M28.0013 7.81149C27.991 7.78024 27.9725 7.75381 27.9482 7.73321C27.9468 7.73218 27.9454 7.73115 27.9441 7.73012L27.9293 7.71982L27.7567 7.60102L27.7245 7.57905L26.6394 6.8323L26.6048 6.80895L26.5558 6.77531L26.527 6.75539L25.4564 6.0186L25.4368 6.00521L25.4231 5.99731C25.4022 6.00761 25.4111 6.00349 25.3906 6.01482C25.207 6.11645 25.0452 6.2531 24.9144 6.41584C24.9072 6.42476 24.9 6.43403 24.8931 6.4433C24.901 6.45154 24.9089 6.45978 24.9174 6.46802C25.1275 6.68055 25.3968 6.8347 25.6979 6.90303C25.6993 6.90337 25.701 6.90371 25.7024 6.90406C25.7274 6.90989 25.7531 6.91504 25.7788 6.91916C25.7918 6.92191 25.8048 6.92397 25.8182 6.92569C25.8737 6.94354 25.9138 6.99607 25.9138 7.05753C25.9138 7.11486 25.8792 7.16396 25.8298 7.1849C25.8288 7.18525 25.8281 7.18559 25.8274 7.18593C25.8182 7.18868 25.8086 7.19143 25.799 7.19383C25.7705 7.20173 25.7414 7.20894 25.712 7.21512C25.7102 7.21546 25.7085 7.2158 25.7068 7.21615C25.6037 7.23778 25.4965 7.24911 25.3868 7.24911C25.1158 7.24911 24.8606 7.17975 24.6375 7.05787C24.6273 7.05238 24.6166 7.0462 24.6064 7.04036C24.4512 6.95075 24.3127 6.83573 24.1969 6.70046C24.1918 6.69359 24.1863 6.68707 24.1805 6.68055C24.1802 6.68055 24.1798 6.67986 24.1798 6.67986C24.1586 6.65926 24.1325 6.64381 24.1031 6.63591C24.1024 6.63591 24.102 6.63557 24.1014 6.63557C24.0955 6.63385 24.0897 6.63282 24.0839 6.63214C24.076 6.63076 24.0674 6.63008 24.0592 6.63008C24.039 6.63008 24.0195 6.63351 24.0013 6.64038C23.9828 6.6469 23.9657 6.65686 23.9509 6.66922C23.9509 6.66922 23.9508 6.66945 23.9506 6.6699C23.9506 6.6699 23.9503 6.67025 23.9499 6.67059C23.9499 6.67059 23.9492 6.67059 23.9489 6.67128L14.6453 12.0537C14.6436 12.0544 14.6422 12.0551 14.6405 12.0558C14.6114 12.0685 14.5836 12.0843 14.5586 12.1028C14.5586 12.1031 14.5583 12.1031 14.5583 12.1031C14.5244 12.1289 14.4946 12.1595 14.4702 12.1948C14.424 12.26 14.3969 12.34 14.3969 12.4259C14.3969 12.4815 14.4086 12.5351 14.4291 12.5835C14.4312 12.5883 14.4332 12.5931 14.4356 12.5979C14.4374 12.6017 14.4391 12.6051 14.4408 12.6085C14.4415 12.6099 14.4421 12.6116 14.4428 12.613C14.4473 12.6216 14.4524 12.6302 14.4576 12.6384C14.4586 12.6401 14.4596 12.6415 14.4606 12.6432C14.4627 12.6463 14.4648 12.6497 14.4672 12.6528C14.4925 12.6748 14.5148 12.6999 14.5333 12.728C14.5706 12.785 14.5922 12.8533 14.5922 12.9265C14.5922 13.0549 14.5254 13.1678 14.425 13.232L14.3442 13.2708L14.3092 13.2876C14.3092 13.2876 14.3078 13.2883 14.3075 13.2883C14.2835 13.2973 14.2609 13.3082 14.2397 13.3209C14.239 13.3209 14.2386 13.3216 14.2383 13.322C14.2373 13.3223 14.2366 13.3227 14.2359 13.3234C14.1989 13.346 14.166 13.3749 14.1383 13.4082C14.0814 13.4772 14.0471 13.5654 14.0471 13.6615C14.0471 13.6777 14.0481 13.6938 14.0502 13.7093C14.0632 13.8191 14.1215 13.9156 14.2054 13.9791C14.2719 14.0292 14.3541 14.0591 14.4435 14.0591C14.4675 14.0591 14.4908 14.0571 14.5134 14.0529C14.5381 14.0485 14.5621 14.0416 14.585 14.033L14.6415 14.0059L16.0904 13.31L16.2056 13.2547C16.2299 13.2392 16.2559 13.2269 16.2833 13.2173C16.3224 13.2035 16.3649 13.196 16.4087 13.196C16.5334 13.196 16.6444 13.2561 16.7143 13.3488L16.7808 13.4878L16.8264 13.5826L16.9384 13.8171C16.9504 13.8562 16.9679 13.8926 16.9905 13.9256C17.0004 13.9403 17.011 13.9544 17.023 13.9674C17.0957 14.0485 17.2008 14.0996 17.318 14.0996C17.3242 14.0996 17.3304 14.0996 17.3365 14.0989C17.3704 14.0976 17.4033 14.0917 17.4345 14.0821C17.4917 14.0643 17.5438 14.034 17.587 13.9939L26.1707 9.02791L26.2324 8.99186L27.4857 8.26709L27.5477 8.23104L27.9218 8.01439C27.9235 8.01371 27.9252 8.01268 27.9273 8.01131C27.9574 7.99345 27.9817 7.96564 27.9958 7.93268C27.9958 7.93234 27.9961 7.932 27.9961 7.93165C28.0047 7.9114 28.0098 7.88908 28.0098 7.86539C28.0098 7.84651 28.0068 7.82831 28.0013 7.81149ZM14.4613 12.6041C14.4596 12.6027 14.4583 12.6017 14.4565 12.6006L14.472 12.5931C14.472 12.5931 14.4737 12.5962 14.4744 12.5979L14.4613 12.6041ZM14.5353 14.0189L14.5329 14.0138C14.547 14.01 14.5603 14.0056 14.5737 14.0004L14.5353 14.0189ZM17.0285 13.9266L17.0193 13.9074C17.0234 13.9132 17.0275 13.919 17.0323 13.9249L17.0285 13.9266ZM25.8041 7.22816C25.8165 7.22507 25.8288 7.2213 25.8408 7.21786C25.8291 7.22301 25.8168 7.22645 25.8041 7.22816Z" fill="#7921D1"/>
</svg>
