<svg width="35" height="26" viewBox="0 0 35 26" fill="none" xmlns="http://www.w3.org/2000/svg">
<path d="M35 17.0434H22.838C22.5773 17.0434 22.3615 17.2391 22.3293 17.4918C22.3279 17.5162 22.3265 17.5405 22.3251 17.5653C22.3217 17.6154 22.318 17.6658 22.3138 17.716C22.1442 19.8137 21.2021 21.7642 19.6182 23.2677C18.4026 24.4216 16.9099 25.2168 15.2825 25.5965C14.8669 25.6751 14.4444 25.7335 14.0158 25.7702C13.6705 25.8004 13.321 25.8166 12.9685 25.8183C12.9455 25.8183 12.9222 25.8183 12.8993 25.8183C12.5046 25.8183 12.1137 25.8004 11.7279 25.7651C12.1359 25.82 12.5501 25.8492 12.9692 25.8523C12.9459 25.8523 12.9226 25.8523 12.8993 25.8523C11.1578 25.8523 9.46871 25.5107 7.87831 24.8367C6.34239 24.1854 4.9627 23.2536 3.77796 22.0663C2.59356 20.8791 1.66337 19.4968 1.01378 17.9577C0.340897 16.3646 0 14.6716 0 12.9265C0 11.1813 0.340897 9.48869 1.01378 7.89494C1.66337 6.35578 2.59356 4.97352 3.77796 3.78627C4.9627 2.59903 6.34239 1.66722 7.87831 1.01592C9.46871 0.34196 11.1578 0 12.8993 0C14.6407 0 16.3298 0.34196 17.9202 1.01592C19.1944 1.55633 20.3613 2.28969 21.3984 3.20227C21.4073 3.20982 21.4162 3.21772 21.4251 3.22561C21.6286 3.40552 21.8273 3.59263 22.0206 3.78627C22.5163 4.28308 22.9672 4.81387 23.3715 5.37625C23.3783 5.38552 23.3852 5.39513 23.3917 5.4044L23.3571 5.42603L20.2119 7.40706L20.1784 7.42801C20.1715 7.41874 20.1646 7.40981 20.1575 7.40054C19.5599 6.61396 18.8381 5.92695 18.0213 5.36972C18.011 5.36251 18.0007 5.35565 17.9904 5.34878C16.5354 4.36376 14.7833 3.78833 12.8993 3.78833C7.87112 3.78833 3.78002 7.88773 3.78002 12.9265C3.78002 13.6193 3.85745 14.2943 4.00408 14.9432C3.99723 14.9697 3.99072 14.9957 3.98455 15.0222C3.99038 15.0486 3.99654 15.0751 4.00305 15.1012C4.00922 15.0747 4.01539 15.0486 4.02224 15.0222C4.82223 18.4274 7.52885 21.104 10.9464 21.8542C11.1389 21.8964 11.3335 21.9324 11.5302 21.9623C11.9245 22.0221 12.3271 22.0564 12.7365 22.0633C15.5514 22.0032 17.9175 19.8955 18.6479 17.0434C18.651 17.0321 18.6537 17.0204 18.6568 17.0091C18.8007 16.4353 18.8785 15.8321 18.8809 15.2096C18.8809 15.0998 18.8905 14.9923 18.9093 14.8879C19.0409 14.1446 19.6213 13.5551 20.3586 13.4106C20.4727 13.3879 20.5905 13.3762 20.7108 13.3762H29.1475L29.2024 13.4106L34.9452 17.0091L35 17.0434Z" fill="white"/>
<path d="M16.592 9.33692C16.592 9.42687 16.57 9.51167 16.531 9.58618C16.5125 9.61604 16.4936 9.64557 16.4738 9.67441C16.4734 9.6751 16.4731 9.67579 16.4724 9.67647C15.9941 10.3824 15.1866 10.8459 14.2708 10.8459C13.9724 10.8459 13.6856 10.7968 13.418 10.7058H13.4177C13.3927 10.6965 13.3677 10.6876 13.3427 10.679C13.0514 10.5801 12.7393 10.5279 12.4145 10.5303C10.9022 10.5424 9.65514 11.7687 9.61643 13.2835C9.60786 13.6166 9.65686 13.9369 9.75381 14.2352C9.80863 14.4035 9.58731 14.5226 9.47664 14.3846C8.86988 13.6272 8.50671 12.6652 8.50671 11.6184C8.50671 9.58583 9.87544 7.87363 11.7396 7.35692C12.1147 7.25289 12.5101 7.19727 12.9185 7.19727C14.3701 7.19727 15.658 7.90007 16.4621 8.98431C16.4782 9.00629 16.4943 9.02826 16.5104 9.05058C16.5622 9.13332 16.592 9.23151 16.592 9.33657V9.33692Z" fill="white"/>
<path d="M23.9501 6.66992C23.9501 6.66992 23.9497 6.66992 23.9497 6.67074C23.9501 6.67033 23.9501 6.66992 23.9505 6.66992H23.9501Z" fill="white"/>
<path d="M28.0012 7.81149C27.9909 7.78024 27.9724 7.75381 27.9481 7.73321C27.9467 7.73218 27.9453 7.73115 27.9439 7.73012L27.9292 7.71982L27.7565 7.60102L27.7243 7.57905L26.6393 6.8323L26.6047 6.80895L26.5557 6.77531L26.5269 6.75539L25.4563 6.0186L25.4367 6.00521L25.423 5.99731C25.4021 6.00761 25.411 6.00349 25.3905 6.01482C25.2068 6.11645 25.0451 6.2531 24.9142 6.41584C24.907 6.42476 24.8999 6.43403 24.893 6.4433C24.9009 6.45154 24.9088 6.45978 24.9173 6.46802C25.1273 6.68055 25.3966 6.8347 25.6978 6.90303C25.6992 6.90337 25.7009 6.90371 25.7022 6.90406C25.7273 6.90989 25.7529 6.91504 25.7786 6.91916C25.7917 6.92191 25.8047 6.92397 25.818 6.92569C25.8735 6.94354 25.9136 6.99607 25.9136 7.05753C25.9136 7.11486 25.879 7.16396 25.8297 7.1849C25.8287 7.18525 25.828 7.18559 25.8273 7.18593C25.818 7.18868 25.8085 7.19143 25.7989 7.19383C25.7704 7.20173 25.7413 7.20894 25.7118 7.21512C25.7101 7.21546 25.7084 7.2158 25.7067 7.21615C25.6036 7.23778 25.4963 7.24911 25.3867 7.24911C25.1157 7.24911 24.8605 7.17975 24.6374 7.05787C24.6271 7.05238 24.6165 7.0462 24.6062 7.04036C24.451 6.95075 24.3126 6.83573 24.1968 6.70046C24.1917 6.69359 24.1862 6.68707 24.1804 6.68055C24.18 6.68055 24.1797 6.67986 24.1797 6.67986C24.1584 6.65926 24.1324 6.64381 24.1029 6.63591C24.1023 6.63591 24.1019 6.63557 24.1012 6.63557C24.0954 6.63385 24.0896 6.63282 24.0838 6.63214C24.0759 6.63076 24.0673 6.63008 24.0591 6.63008C24.0389 6.63008 24.0193 6.63351 24.0012 6.64038C23.9827 6.6469 23.9656 6.65686 23.9508 6.66922C23.9508 6.66922 23.9507 6.66945 23.9505 6.6699C23.9505 6.6699 23.9501 6.67025 23.9498 6.67059C23.9498 6.67059 23.9491 6.67059 23.9488 6.67128L14.6452 12.0537C14.6435 12.0544 14.6421 12.0551 14.6404 12.0558C14.6113 12.0685 14.5835 12.0843 14.5585 12.1028C14.5585 12.1031 14.5582 12.1031 14.5582 12.1031C14.5243 12.1289 14.4944 12.1595 14.4701 12.1948C14.4239 12.26 14.3968 12.34 14.3968 12.4259C14.3968 12.4815 14.4085 12.5351 14.429 12.5835C14.4311 12.5883 14.4331 12.5931 14.4355 12.5979C14.4372 12.6017 14.4389 12.6051 14.4407 12.6085C14.4413 12.6099 14.442 12.6116 14.4427 12.613C14.4472 12.6216 14.4523 12.6302 14.4574 12.6384C14.4585 12.6401 14.4595 12.6415 14.4605 12.6432C14.4626 12.6463 14.4646 12.6497 14.467 12.6528C14.4924 12.6748 14.5147 12.6999 14.5332 12.728C14.5705 12.785 14.5921 12.8533 14.5921 12.9265C14.5921 13.0549 14.5253 13.1678 14.4249 13.232L14.344 13.2708L14.3091 13.2876C14.3091 13.2876 14.3077 13.2883 14.3074 13.2883C14.2834 13.2973 14.2608 13.3082 14.2395 13.3209C14.2389 13.3209 14.2385 13.3216 14.2382 13.322C14.2371 13.3223 14.2365 13.3227 14.2358 13.3234C14.1988 13.346 14.1659 13.3749 14.1381 13.4082C14.0813 13.4772 14.047 13.5654 14.047 13.6615C14.047 13.6777 14.048 13.6938 14.0501 13.7093C14.0631 13.8191 14.1213 13.9156 14.2053 13.9791C14.2717 14.0292 14.354 14.0591 14.4434 14.0591C14.4674 14.0591 14.4907 14.0571 14.5133 14.0529C14.538 14.0485 14.5619 14.0416 14.5849 14.033L14.6414 14.0059L16.0903 13.31L16.2054 13.2547C16.2298 13.2392 16.2558 13.2269 16.2832 13.2173C16.3223 13.2035 16.3648 13.196 16.4086 13.196C16.5333 13.196 16.6443 13.2561 16.7142 13.3488L16.7807 13.4878L16.8262 13.5826L16.9383 13.8171C16.9503 13.8562 16.9677 13.8926 16.9904 13.9256C17.0003 13.9403 17.0109 13.9544 17.0229 13.9674C17.0955 14.0485 17.2007 14.0996 17.3179 14.0996C17.3241 14.0996 17.3302 14.0996 17.3364 14.0989C17.3703 14.0976 17.4032 14.0917 17.4344 14.0821C17.4916 14.0643 17.5437 14.034 17.5868 13.9939L26.1706 9.02791L26.2323 8.99186L27.4855 8.26709L27.5475 8.23104L27.9217 8.01439C27.9234 8.01371 27.9251 8.01268 27.9272 8.01131C27.9573 7.99345 27.9816 7.96564 27.9957 7.93268C27.9957 7.93234 27.996 7.932 27.996 7.93165C28.0046 7.9114 28.0097 7.88908 28.0097 7.86539C28.0097 7.84651 28.0066 7.82831 28.0012 7.81149ZM14.4612 12.6041C14.4595 12.6027 14.4581 12.6017 14.4564 12.6006L14.4718 12.5931C14.4718 12.5931 14.4735 12.5962 14.4742 12.5979L14.4612 12.6041ZM14.5352 14.0189L14.5328 14.0138C14.5469 14.01 14.5602 14.0056 14.5736 14.0004L14.5352 14.0189ZM17.0284 13.9266L17.0191 13.9074C17.0232 13.9132 17.0274 13.919 17.0322 13.9249L17.0284 13.9266ZM25.804 7.22816C25.8163 7.22507 25.8287 7.2213 25.8407 7.21786C25.829 7.22301 25.8167 7.22645 25.804 7.22816Z" fill="white"/>
</svg>
